<?xml version="1.0" encoding="UTF-8"?>
<svg xmlns="http://www.w3.org/2000/svg" xmlns:xlink="http://www.w3.org/1999/xlink" viewBox="0 0 64 64" version="1.1">
<g id="surface1">
<path style=" stroke:none;fill-rule:nonzero;fill:rgb(0%,0%,0%);fill-opacity:1;" d="M 28.1875 0.96875 C 22.308594 1.765625 17.519531 3.824219 13.125 7.441406 C 11.6875 8.625 9.535156 10.804688 8.46875 12.160156 C 5.117188 16.382812 2.878906 21.59375 1.996094 27.222656 C 1.707031 29.046875 1.546875 33.160156 1.707031 34.527344 C 1.765625 35.132812 1.851562 35.894531 1.886719 36.234375 C 2.964844 46.796875 10.367188 56.488281 20.6875 60.832031 C 23.808594 62.136719 26.859375 62.839844 30.304688 63.019531 C 42.066406 63.660156 53.390625 57.007812 58.847656 46.214844 C 60.683594 42.585938 61.640625 39.175781 62.113281 34.457031 C 62.558594 30.089844 61.675781 24.5 59.8125 19.988281 C 56.996094 13.152344 51.828125 7.5 45.40625 4.210938 C 39.792969 1.332031 33.816406 0.207031 28.1875 0.96875 M 35.328125 3.265625 C 40.105469 3.859375 45.453125 6.15625 49.421875 9.316406 C 54.734375 13.550781 58.121094 19.089844 59.851562 26.339844 L 60.1875 27.765625 L 60.1875 32.179688 C 60.1875 36.320312 60.175781 36.683594 59.910156 37.902344 C 59.027344 42.089844 57.296875 46.035156 54.925781 49.265625 C 53.875 50.691406 51.695312 52.992188 50.171875 54.296875 C 47.4375 56.609375 43.652344 58.6875 40.335938 59.707031 C 37.261719 60.636719 35.046875 60.902344 30.898438 60.832031 C 28.503906 60.78125 27.933594 60.734375 26.664062 60.457031 C 20.554688 59.148438 16.007812 56.691406 11.722656 52.398438 C 9.28125 49.941406 7.792969 47.871094 6.351562 44.945312 C 4.332031 40.820312 3.484375 37.140625 3.460938 32.363281 C 3.449219 29.109375 3.691406 27.269531 4.5625 24.207031 C 5.988281 19.164062 8.371094 15.085938 12.085938 11.359375 C 16.355469 7.066406 21.28125 4.488281 27.222656 3.449219 C 28.601562 3.207031 29.277344 3.15625 31.578125 3.15625 C 33.078125 3.144531 34.769531 3.207031 35.328125 3.265625 "/>
<path style=" stroke:none;fill-rule:nonzero;fill:rgb(0%,0%,0%);fill-opacity:1;" d="M 29.582031 5.203125 C 22.914062 5.78125 16.261719 9.230469 11.785156 14.433594 C 8.421875 18.351562 6.132812 23.398438 5.371094 28.636719 C 5.117188 30.402344 5.117188 34.578125 5.371094 36.292969 C 5.902344 39.839844 7.417969 43.84375 9.339844 46.84375 C 12.269531 51.429688 16.960938 55.253906 22.089844 57.261719 C 27.101562 59.234375 33.851562 59.609375 38.824219 58.191406 C 42.234375 57.226562 45.5625 55.628906 48.089844 53.730469 C 49.035156 53.027344 51.828125 50.28125 52.808594 49.117188 C 57.007812 44.085938 59.257812 36.488281 58.542969 29.628906 C 58.023438 24.488281 55.796875 19.164062 52.386719 14.882812 C 48.890625 10.5 43.300781 7.113281 37.3125 5.746094 C 35.132812 5.25 31.769531 5.007812 29.582031 5.203125 M 35.230469 6.59375 C 40.589844 7.308594 45.949219 10.003906 49.964844 14.035156 C 55.964844 20.058594 58.664062 28.914062 57.03125 37.261719 C 55.519531 44.957031 50.390625 51.757812 43.46875 55.214844 C 41.0625 56.425781 38.15625 57.320312 35.351562 57.722656 C 34.699219 57.804688 33.292969 57.84375 31.238281 57.792969 C 27.933594 57.734375 27.183594 57.636719 24.691406 56.921875 C 21.667969 56.050781 18.632812 54.503906 16.03125 52.519531 C 15.015625 51.746094 12.8125 49.589844 11.941406 48.515625 C 8.941406 44.789062 6.96875 40.082031 6.398438 35.277344 C 6.195312 33.5 6.316406 29.566406 6.640625 27.824219 C 7.695312 22.210938 10.257812 17.457031 14.359375 13.539062 C 16.925781 11.082031 19.816406 9.21875 22.890625 8.035156 C 23.992188 7.609375 26.714844 6.871094 28.226562 6.59375 C 29.433594 6.375 33.597656 6.375 35.230469 6.59375 "/>
<path style=" stroke:none;fill-rule:nonzero;fill:rgb(0%,0%,0%);fill-opacity:1;" d="M 29.339844 7.5 C 27.960938 7.632812 26.179688 8.019531 24.4375 8.589844 C 22.550781 9.195312 19.441406 10.730469 17.929688 11.820312 C 16.597656 12.765625 14.710938 14.480469 13.394531 15.945312 C 10.851562 18.753906 8.757812 22.890625 7.792969 27.0625 C 7.464844 28.46875 7.453125 28.578125 7.453125 32.300781 C 7.441406 36.039062 7.453125 36.136719 7.765625 37.480469 C 8.929688 42.269531 10.488281 45.367188 13.40625 48.683594 C 14.542969 49.964844 15.835938 51.128906 17.421875 52.289062 C 20 54.164062 23.578125 55.773438 26.496094 56.367188 C 29.445312 56.957031 34.261719 57.03125 36.71875 56.5 C 39.632812 55.871094 43.105469 54.441406 45.441406 52.90625 C 49.785156 50.027344 53.449219 45.296875 55.167969 40.324219 C 56.160156 37.503906 56.28125 36.753906 56.339844 33.113281 C 56.414062 29.398438 56.316406 28.261719 55.726562 26.144531 C 54.140625 20.480469 51.1875 15.980469 46.882812 12.65625 C 41.738281 8.675781 35.726562 6.90625 29.339844 7.5 M 35.207031 8.394531 C 41.824219 9.28125 48.128906 13.429688 52.046875 19.476562 C 54.03125 22.527344 55.445312 26.859375 55.710938 30.667969 C 55.796875 31.925781 55.605469 35.074219 55.363281 36.476562 C 54.332031 42.285156 51.261719 47.375 46.457031 51.234375 C 44.8125 52.554688 42.175781 53.996094 39.804688 54.855469 C 35.121094 56.535156 29.109375 56.570312 24.195312 54.9375 C 18.136719 52.917969 13.234375 48.609375 10.34375 42.765625 C 8.808594 39.660156 8.105469 36.378906 8.105469 32.300781 C 8.105469 29.207031 8.480469 26.917969 9.460938 24.101562 C 12.21875 16.066406 19.515625 9.980469 28.25 8.421875 C 29.542969 8.191406 33.535156 8.179688 35.207031 8.394531 "/>
<path style=" stroke:none;fill-rule:nonzero;fill:rgb(0%,0%,0%);fill-opacity:1;" d="M 29.824219 9.605469 C 29.109375 9.871094 28.601562 10.488281 28.417969 11.300781 C 28.335938 11.675781 28.226562 12.011719 28.164062 12.050781 C 28.105469 12.085938 27.535156 12.230469 26.894531 12.363281 C 23.3125 13.089844 18.910156 15.765625 16.503906 18.679688 C 16.054688 19.210938 15.617188 19.730469 15.546875 19.816406 C 15.4375 19.9375 15.28125 19.9375 14.785156 19.828125 C 13.890625 19.648438 13.273438 19.949219 12.59375 20.929688 C 11.953125 21.835938 11.191406 23.457031 10.949219 24.414062 C 10.78125 25.078125 10.78125 25.1875 10.949219 25.613281 C 11.058594 25.867188 11.335938 26.230469 11.566406 26.433594 L 11.988281 26.796875 L 11.734375 27.886719 C 10.996094 31.070312 11.15625 35.304688 12.148438 38.496094 L 12.4375 39.429688 L 12.148438 39.816406 C 11.746094 40.359375 11.578125 40.964844 11.664062 41.519531 C 11.773438 42.164062 12.328125 43.359375 12.921875 44.230469 C 13.9375 45.71875 14.796875 46.226562 15.871094 45.972656 C 16.164062 45.914062 16.453125 45.851562 16.539062 45.851562 C 16.625 45.851562 17.214844 46.300781 17.871094 46.855469 C 19.453125 48.199219 20.144531 48.695312 21.65625 49.578125 C 23.203125 50.484375 24.957031 51.1875 26.75 51.648438 C 27.488281 51.839844 28.140625 52.070312 28.1875 52.144531 C 28.238281 52.226562 28.320312 52.519531 28.359375 52.785156 C 28.417969 53.125 28.578125 53.414062 28.890625 53.714844 C 29.496094 54.320312 30.292969 54.492188 32.242188 54.417969 C 34.25 54.34375 34.792969 54.03125 35.167969 52.75 C 35.265625 52.386719 35.375 52.070312 35.386719 52.046875 C 35.398438 52.023438 35.980469 51.878906 36.671875 51.730469 C 39.015625 51.199219 41.558594 50.085938 43.492188 48.742188 C 43.964844 48.429688 44.933594 47.644531 45.648438 47 C 46.371094 46.371094 47.0625 45.851562 47.195312 45.851562 C 47.328125 45.851562 47.679688 45.914062 47.96875 45.984375 C 48.742188 46.179688 49.226562 45.972656 49.988281 45.125 C 51.152344 43.855469 51.890625 42.34375 51.902344 41.28125 C 51.902344 40.796875 51.5625 39.898438 51.308594 39.753906 C 51.25 39.71875 51.355469 39.1875 51.5625 38.570312 C 52.347656 36.089844 52.433594 35.4375 52.433594 32.058594 C 52.433594 29.410156 52.398438 28.816406 52.191406 27.875 L 51.9375 26.785156 L 52.347656 26.3125 C 52.578125 26.046875 52.796875 25.707031 52.832031 25.539062 C 52.992188 24.898438 52.167969 22.574219 51.308594 21.207031 C 50.65625 20.179688 50.0625 19.804688 49.082031 19.792969 L 48.332031 19.78125 L 46.640625 18.074219 C 44.726562 16.164062 43.359375 15.136719 41.253906 14.046875 C 39.71875 13.257812 37.433594 12.4375 36.101562 12.207031 L 35.230469 12.0625 L 35.15625 11.445312 C 35.046875 10.660156 34.636719 10.015625 34.03125 9.738281 C 33.402344 9.4375 30.535156 9.339844 29.824219 9.605469 M 33.71875 11.398438 C 34.007812 11.6875 33.851562 11.785156 32.992188 11.855469 L 32.242188 11.917969 L 32.15625 12.945312 C 32.121094 13.515625 32.074219 15.0625 32.074219 16.394531 C 32.058594 18.8125 32.011719 19.355469 31.804688 19.355469 C 31.550781 19.355469 31.445312 18.546875 31.296875 15.328125 L 31.152344 11.917969 L 30.425781 11.855469 C 29.871094 11.808594 29.6875 11.746094 29.664062 11.589844 C 29.640625 11.445312 29.726562 11.359375 29.96875 11.300781 C 30.148438 11.261719 30.367188 11.214844 30.425781 11.179688 C 30.5 11.15625 31.214844 11.15625 32.023438 11.167969 C 33.246094 11.191406 33.535156 11.226562 33.71875 11.398438 M 28.769531 13.378906 C 28.722656 13.417969 28.308594 13.527344 27.824219 13.621094 C 25.949219 14.011719 23.289062 15.160156 21.472656 16.332031 C 19.527344 17.613281 18.21875 18.835938 16.914062 20.578125 C 16.5625 21.050781 16.261719 21.378906 16.234375 21.304688 C 16.164062 21.074219 17.058594 19.878906 18.136719 18.789062 C 20.53125 16.355469 23.699219 14.46875 26.820312 13.621094 C 27.800781 13.355469 28.925781 13.210938 28.769531 13.378906 M 36.949219 13.597656 C 40.433594 14.480469 44.496094 17.058594 46.773438 19.828125 C 47.136719 20.253906 47.390625 20.640625 47.363281 20.675781 C 47.328125 20.710938 46.625 20.082031 45.816406 19.285156 C 43.675781 17.167969 42.648438 16.394531 40.515625 15.269531 C 39.320312 14.625 37.902344 14.082031 36.175781 13.609375 C 34.808594 13.234375 35.460938 13.222656 36.949219 13.597656 M 35.714844 13.972656 C 39.210938 14.699219 42.527344 16.539062 45.234375 19.25 C 45.875 19.878906 46.554688 20.617188 46.734375 20.894531 C 47.074219 21.390625 47.074219 21.777344 46.734375 21.777344 C 46.640625 21.777344 45.742188 20.976562 44.738281 20.011719 C 42.960938 18.292969 42.015625 17.542969 41.617188 17.542969 C 41.316406 17.542969 41 17.941406 39.984375 19.648438 C 38.074219 22.878906 37.03125 24.183594 34.347656 26.796875 C 31.914062 29.179688 29.835938 30.753906 26.917969 32.421875 C 23.421875 34.445312 19.5625 35.703125 16.296875 35.882812 C 14.722656 35.96875 14.519531 36.003906 14.519531 36.269531 C 14.519531 36.378906 14.699219 37.070312 14.929688 37.808594 C 15.328125 39.101562 15.339844 39.148438 15.121094 39.367188 C 14.640625 39.863281 14.289062 39.28125 13.742188 37.128906 C 13.273438 35.277344 13.152344 33.910156 13.222656 31.359375 C 13.273438 29.421875 13.332031 28.9375 13.585938 28.007812 C 13.984375 26.605469 14.144531 26.253906 14.410156 26.253906 C 14.53125 26.253906 15.617188 26.496094 16.839844 26.785156 C 18.0625 27.074219 19.371094 27.378906 19.746094 27.449219 C 20.84375 27.644531 21.414062 27.34375 21.414062 26.554688 C 21.414062 26.167969 20.601562 25.285156 18.996094 23.917969 C 17.375 22.550781 16.695312 21.875 16.695312 21.65625 C 16.695312 21.402344 18.050781 19.730469 19.019531 18.789062 C 21.0625 16.804688 23.964844 15.121094 26.738281 14.335938 C 27.570312 14.09375 28.441406 13.914062 28.671875 13.9375 L 29.097656 13.972656 L 29.90625 16.636719 C 30.34375 18.097656 30.8125 19.527344 30.960938 19.792969 C 31.226562 20.363281 31.648438 20.542969 32.195312 20.324219 C 32.582031 20.15625 32.796875 19.613281 33.695312 16.636719 C 34.347656 14.445312 34.589844 13.792969 34.722656 13.792969 C 34.78125 13.792969 35.230469 13.875 35.714844 13.972656 M 14.761719 21.582031 C 14.761719 21.679688 14.710938 21.898438 14.640625 22.066406 C 14.457031 22.550781 14.699219 22.914062 15.472656 23.351562 C 19.574219 25.683594 20.566406 26.324219 20.566406 26.640625 C 20.566406 26.871094 20.058594 26.652344 17.300781 25.285156 C 15.691406 24.488281 14.25 23.832031 14.105469 23.832031 C 13.902344 23.832031 13.753906 23.992188 13.488281 24.558594 C 13.089844 25.394531 12.871094 25.625 12.691406 25.441406 C 12.351562 25.105469 14.144531 21.414062 14.640625 21.414062 C 14.710938 21.414062 14.761719 21.488281 14.761719 21.582031 M 49.386719 21.96875 C 49.964844 22.816406 50.726562 24.476562 50.789062 25.03125 L 50.847656 25.589844 L 50.59375 25.359375 C 50.449219 25.238281 50.160156 24.789062 49.941406 24.367188 C 49.722656 23.941406 49.492188 23.589844 49.421875 23.589844 C 49.277344 23.605469 47.945312 24.257812 46.457031 25.066406 C 45.1875 25.757812 43.578125 26.472656 43.070312 26.578125 C 42.71875 26.640625 42.695312 26.628906 42.730469 26.363281 C 42.753906 26.132812 43.035156 25.925781 43.976562 25.394531 C 49.457031 22.320312 48.960938 22.648438 48.769531 22.164062 C 48.585938 21.742188 48.671875 21.367188 48.914062 21.4375 C 48.984375 21.472656 49.203125 21.703125 49.386719 21.96875 M 49.964844 27.125 C 50.765625 30.863281 50.777344 33.777344 49.964844 36.804688 C 49.445312 38.773438 49.023438 39.597656 48.683594 39.308594 C 48.429688 39.101562 48.464844 38.8125 48.984375 37.214844 C 49.652344 35.183594 49.773438 34.191406 49.6875 31.417969 C 49.628906 29.15625 49.480469 28.25 49.023438 27.089844 C 48.863281 26.6875 49.023438 26.496094 49.492188 26.496094 C 49.796875 26.496094 49.832031 26.554688 49.964844 27.125 M 13.152344 28.09375 C 12.8125 29.6875 12.667969 31.578125 12.738281 33.269531 C 12.824219 35.21875 13.042969 36.429688 13.609375 38.109375 C 13.839844 38.800781 14.035156 39.390625 14.035156 39.429688 C 14.023438 39.476562 13.925781 39.367188 13.792969 39.222656 C 13.515625 38.882812 13.054688 37.480469 12.738281 36.039062 C 12.4375 34.613281 12.4375 30.304688 12.738281 28.757812 C 12.859375 28.175781 13.003906 27.558594 13.078125 27.378906 C 13.296875 26.808594 13.332031 27.195312 13.152344 28.09375 M 50.980469 28.671875 C 51.261719 30.0625 51.40625 32.242188 51.296875 33.355469 C 51.089844 35.328125 50.546875 37.675781 49.964844 39.003906 C 49.53125 40.019531 49.589844 39.550781 50.085938 37.929688 C 50.351562 37.070312 50.65625 35.90625 50.753906 35.351562 C 50.996094 34.007812 50.996094 30.050781 50.753906 28.792969 C 50.667969 28.296875 50.558594 27.691406 50.523438 27.464844 L 50.449219 27.039062 L 50.621094 27.402344 C 50.714844 27.609375 50.875 28.175781 50.980469 28.671875 M 20.894531 38.316406 C 20.992188 38.59375 19.164062 40.035156 16.636719 41.679688 C 15.835938 42.199219 15.136719 42.671875 15.085938 42.707031 C 15.027344 42.753906 15.148438 43.105469 15.351562 43.492188 C 15.765625 44.269531 15.8125 44.523438 15.558594 44.523438 C 15.363281 44.523438 14.25 42.902344 13.742188 41.894531 C 13.1875 40.785156 13.394531 40.371094 14.046875 41.304688 L 14.421875 41.835938 L 15.472656 41.195312 C 16.042969 40.855469 17.386719 40.007812 18.449219 39.332031 C 20.265625 38.183594 20.785156 37.964844 20.894531 38.316406 M 44.171875 38.800781 C 44.789062 39.175781 46.144531 40.007812 47.171875 40.664062 C 48.5625 41.558594 49.082031 41.824219 49.191406 41.726562 C 49.277344 41.65625 49.492188 41.351562 49.664062 41.0625 C 49.988281 40.503906 50.328125 40.359375 50.328125 40.769531 C 50.328125 41.425781 48.308594 44.523438 47.886719 44.523438 C 47.679688 44.523438 47.800781 44.050781 48.152344 43.542969 C 48.34375 43.25 48.515625 42.949219 48.515625 42.863281 C 48.515625 42.792969 47.460938 42.003906 46.191406 41.121094 C 43.046875 38.957031 42.585938 38.605469 42.585938 38.339844 C 42.585938 37.964844 42.960938 38.074219 44.171875 38.800781 M 32.035156 43.519531 C 32.097656 43.636719 32.179688 45.476562 32.21875 47.605469 C 32.300781 51.867188 32.277344 51.78125 33.066406 51.78125 C 33.464844 51.78125 33.910156 51.988281 33.816406 52.144531 C 33.644531 52.421875 30.183594 52.421875 29.75 52.132812 C 29.445312 51.925781 29.980469 51.660156 30.679688 51.660156 L 31.308594 51.660156 L 31.347656 47.691406 C 31.382812 44.546875 31.429688 43.675781 31.566406 43.519531 C 31.769531 43.25 31.902344 43.261719 32.035156 43.519531 M 19.273438 44.679688 C 22.03125 47.183594 24.667969 48.585938 28.226562 49.421875 C 28.734375 49.542969 29.15625 49.699219 29.15625 49.75 C 29.15625 50.085938 28.878906 50.328125 28.492188 50.328125 C 27.183594 50.328125 23.191406 48.683594 21.195312 47.316406 C 20.035156 46.519531 17.542969 44.351562 17.542969 44.132812 C 17.542969 44 17.894531 43.554688 17.988281 43.554688 C 18.027344 43.554688 18.605469 44.0625 19.273438 44.679688 M 45.851562 43.917969 C 46.179688 44.121094 45.828125 44.65625 44.714844 45.636719 C 43.46875 46.734375 41.085938 48.367188 40.007812 48.863281 C 38.714844 49.445312 36.355469 50.207031 35.59375 50.28125 C 34.808594 50.363281 34.480469 50.246094 34.480469 49.855469 C 34.480469 49.699219 34.746094 49.589844 35.664062 49.359375 C 38.304688 48.730469 39.886719 48.066406 41.761719 46.808594 C 42.816406 46.09375 44.738281 44.546875 45.175781 44.0625 C 45.429688 43.773438 45.574219 43.734375 45.851562 43.917969 M 21.050781 47.726562 C 23.011719 49.046875 25.117188 49.917969 28.175781 50.691406 C 29.070312 50.921875 28.625 50.96875 27.570312 50.753906 C 25.09375 50.246094 22.34375 49.035156 20.386719 47.570312 C 19.261719 46.734375 17.421875 45.054688 17.421875 44.859375 C 17.421875 44.800781 17.976562 45.246094 18.667969 45.863281 C 19.34375 46.46875 20.421875 47.304688 21.050781 47.726562 M 45.78125 45.5 C 44.28125 47.039062 42.34375 48.441406 40.371094 49.410156 C 39.101562 50.027344 36.574219 50.800781 35.570312 50.886719 C 35 50.921875 35.085938 50.886719 36.234375 50.582031 C 39.804688 49.652344 42.453125 48.222656 45.175781 45.769531 C 46.386719 44.691406 46.722656 44.535156 45.78125 45.5 "/>
</g>
</svg>
