<svg xmlns="http://www.w3.org/2000/svg" width="64" height="64" viewBox="0 0 64 64">
<g>
<path d="M 22.00 60.00 C22.00,58.34 21.33,58.00 18.07,58.00 C11.10,58.00 11.00,57.64 11.00,32.99 C11.00,6.52 10.15,8.00 25.33,8.00 C33.93,8.00 35.14,8.21 34.61,9.58 C34.27,10.45 34.00,11.35 34.00,11.58 C34.00,11.81 29.70,12.00 24.44,12.00 L 14.89 12.00 L 15.19 16.25 L 15.50 20.50 L 23.25 20.79 C29.24,21.02 31.00,21.42 31.00,22.54 C31.00,23.70 29.34,24.00 23.00,24.00 L 15.00 24.00 L 15.00 39.00 L 15.00 54.00 L 30.50 54.00 L 46.00 54.00 L 46.00 45.04 C46.00,37.09 46.23,35.95 48.00,35.00 C49.94,33.96 50.00,34.24 50.00,43.74 C50.00,55.99 48.94,58.00 42.44,58.00 C38.67,58.00 38.00,58.30 38.00,60.00 C38.00,61.10 37.38,62.00 36.62,62.00 C35.86,62.00 35.00,61.10 34.71,60.00 C34.29,58.41 33.35,58.00 30.09,58.00 C26.67,58.00 26.00,58.33 26.00,60.00 C26.00,61.33 25.33,62.00 24.00,62.00 C22.67,62.00 22.00,61.33 22.00,60.00 ZM 24.38 48.55 C23.38,45.94 25.02,45.00 30.56,45.00 C35.70,45.00 36.00,45.14 36.00,47.50 C36.00,49.87 35.70,50.00 30.47,50.00 C26.56,50.00 24.77,49.58 24.38,48.55 ZM 38.10 30.47 C35.62,27.63 35.00,26.04 35.00,22.43 C35.00,19.96 35.71,16.26 36.57,14.22 L 38.14 10.50 L 40.36 13.25 C43.21,16.78 44.00,16.72 44.00,12.95 C44.00,9.18 46.38,4.40 48.94,3.03 C51.55,1.64 51.53,1.63 51.79,4.73 C51.91,6.22 53.38,9.04 55.04,10.98 C61.83,18.88 62.34,25.36 56.66,31.27 L 53.55 34.50 L 53.23 32.00 C52.47,26.12 49.00,21.13 49.00,25.92 C49.00,28.23 44.36,34.00 42.51,34.00 C41.80,34.00 39.81,32.41 38.10,30.47 Z" fill="rgba(0,0,0,1)"/>
</g>
</svg>