<svg viewBox="0 0 64 64" xmlns="http://www.w3.org/2000/svg">    <g id="measure_water" stroke="none" stroke-width="1" fill="none" fill-rule="evenodd">
        <path d="M32,20 C35.3138433,20 41,29.0223552 41,34.9166667 C41,39.9279896 36.9758956,44 32,44 C27.0241044,44 23,39.9279896 23,34.9166667 C23,29.0223552 28.6861567,20 32,20 Z M32,24.342 L31.900358,24.4393912 L31.7635295,24.5796483 C31.1048219,25.2689782 30.3570216,26.2450601 29.6687308,27.3371869 C28.0227674,29.9488749 27,32.7231366 27,34.9166667 C27,37.7293777 29.2439091,40 32,40 C34.7560909,40 37,37.7293777 37,34.9166667 C37,32.7231366 35.9772326,29.9488749 34.3312692,27.3371869 C33.6429784,26.2450601 32.8951781,25.2689782 32.2364705,24.5796483 C32.1898064,24.5308149 32.1441456,24.4840306 32.099642,24.4393912 L32,24.342 Z M31.2486848,55.5987879 L27.121566,49.1920335 C26.8845853,48.8241552 27.0046546,48.3424083 27.3897483,48.1160216 C27.5187856,48.0401639 27.6673268,48 27.8188399,48 L36.1812751,48 C36.6334444,48 37,48.3501689 37,48.7821242 C37,48.9268639 36.9579566,49.0687647 36.878549,49.1920335 L32.7514302,55.5987879 C32.496063,55.9952085 31.952646,56.1188095 31.5376743,55.8748583 C31.4200528,55.8057117 31.3210673,55.7111513 31.2486848,55.5987879 Z M31.2486848,15.5987879 L27.121566,9.19203348 C26.8845853,8.82415519 27.0046546,8.34240827 27.3897483,8.11602162 C27.5187856,8.0401639 27.6673268,8 27.8188399,8 L36.1812751,8 C36.6334444,8 37,8.35016893 37,8.7821242 C37,8.92686393 36.9579566,9.06876469 36.878549,9.19203348 L32.7514302,15.5987879 C32.496063,15.9952085 31.952646,16.1188095 31.5376743,15.8748583 C31.4200528,15.8057117 31.3210673,15.7111513 31.2486848,15.5987879 Z M11.4,8.8 C12.0627417,7.9163444 13.3163444,7.7372583 14.2,8.4 C17.2216701,10.6662526 19,14.2229124 19,18 L19,46 C19,49.7770876 17.2216701,53.3337474 14.2,55.6 C13.3163444,56.2627417 12.0627417,56.0836556 11.4,55.2 C10.7372583,54.3163444 10.9163444,53.0627417 11.8,52.4 C13.8144467,50.8891649 15,48.5180584 15,46 L15,18 C15,15.4819416 13.8144467,13.1108351 11.8,11.6 C10.9163444,10.9372583 10.7372583,9.6836556 11.4,8.8 Z M52.6,8.8 C51.9372583,7.9163444 50.6836556,7.7372583 49.8,8.4 C46.7783299,10.6662526 45,14.2229124 45,18 L45,46 C45,49.7770876 46.7783299,53.3337474 49.8,55.6 C50.6836556,56.2627417 51.9372583,56.0836556 52.6,55.2 C53.2627417,54.3163444 53.0836556,53.0627417 52.2,52.4 C50.1855533,50.8891649 49,48.5180584 49,46 L49,18 C49,15.4819416 50.1855533,13.1108351 52.2,11.6 C53.0836556,10.9372583 53.2627417,9.6836556 52.6,8.8 Z" id="Combined-Shape" fill="currentColor" fill-rule="nonzero"></path>
    </g>
</svg>