<svg xmlns="http://www.w3.org/2000/svg" viewBox="45 26 333 333">
  <path fill="currentColor" fill-rule="evenodd" d="M231.836 34.259c-.859.079-6.133.58-11.719 1.114-5.586.533-15.166 1.402-21.289 1.932-12.536 1.084-47.488 4.28-53.137 4.859-2.034.209-9.939.923-17.566 1.587-25.77 2.244-25.544 2.204-26.856 4.724-.874 1.677-.384 61.583 1.44 176.134.436 27.393.977 62.813 1.201 78.711.51 36.074.16 33.686 5.039 34.334 1.897.251 1.988.318 1.989 1.452 0 1.351 1.829 3.471 2.997 3.473.603.001 33.423 2.176 53.057 3.517 5.859.4 45.302 2.925 64.453 4.125 13.318.835 10.727 1.509 30.078-7.824 33.602-16.205 30.665-14.593 30.665-16.821 0-1.19.174-1.398 1.759-2.099 2.55-1.128 2.459.46 2.117-36.954-.172-18.906-.324-46.041-.337-60.299l-.024-25.924-1.55 1.4c-.853.77-2.522 2.046-3.711 2.835l-2.161 1.435v21.069l-4.785-.263c-2.632-.145-6.543-.415-8.691-.599-2.149-.184-10.54-.732-18.647-1.218-8.108-.486-14.907-.985-15.109-1.11-.533-.33-1.086-56.124-1.155-116.537l-.059-51.477 1.274.658c.701.362 6.723 3.594 13.383 7.183S269.941 72 274.023 74.198c4.082 2.199 7.818 4.249 8.301 4.557.803.511.879.858.879 4.012 0 5.459.316 7.018 1.554 7.658.578.299 2.054 1.36 3.278 2.358l2.227 1.813-.112-14.652c-.138-18.183 1.603-15.15-13.587-23.68-3.545-1.991-8.204-4.632-10.352-5.869-2.148-1.238-8.037-4.591-13.086-7.452s-10.666-6.047-12.484-7.08c-3.462-1.969-3.922-2.052-8.805-1.604m-.195 10.272c0 1.504-.132 2.733-.293 2.731-.161-.001-5.215.438-11.231.976-6.015.538-19.375 1.679-29.687 2.534-10.313.856-23.936 2.001-30.274 2.544-6.338.544-18.818 1.604-27.734 2.356-8.916.753-17.944 1.542-20.061 1.755-2.118.212-3.919.386-4.004.386s-.154-1.13-.154-2.511v-2.511l2.051-.225c3.078-.336 17.654-1.671 28.027-2.567 5.049-.436 12.696-1.136 16.992-1.555 4.297-.419 13.965-1.295 21.485-1.947 24.107-2.089 31.821-2.772 41.797-3.698 5.371-.499 10.512-.929 11.425-.955l1.661-.047zm13.108 1.886c2.566 1.467 8.796 5.003 13.845 7.858 5.049 2.856 11.377 6.463 14.062 8.017 2.686 1.554 5.98 3.423 7.32 4.154l2.437 1.327.004 2.644.005 2.643-2.018-1.022c-1.11-.563-9.064-4.976-17.676-9.808s-17.372-9.746-19.466-10.92l-3.809-2.135v-2.713c0-3.291-.376-3.288 5.296-.045m-12.952 37.86c.285 33.602.846 87.077 1.249 119.092l.256 20.36-61.28.181c-33.704.1-61.337.138-61.408.084-.385-.291-2.652-159.43-2.277-159.805.095-.095 1.773-.275 3.73-.402l3.558-.231v46.855c0 35.922.109 46.964.469 47.323.774.775 44.094-.004 45.136-.811.3-.232.496-1.378.507-2.967l.019-2.589 4.962-2.417c19.991-9.739 35.653-35.264 39.742-64.77.932-6.731 1.161-19.875.428-24.594-.333-2.139-.552-3.943-.487-4.007.064-.065 3.528-.392 7.698-.728 4.169-.336 8.899-.75 10.51-.921 1.612-.171 3.83-.334 4.929-.362l1.999-.052zm-32.851-27.503c1.357 3.538 1.302 20.586-.092 28.578-3.081 17.647-10.717 34.689-18.991 42.382-1.597 1.485-1.463 1.254 1.815-3.131 11.672-15.611 18.169-41.424 16.248-64.544-.302-3.63.23-5.343 1.02-3.285m-11.878 1.919c9.769 22.789-4.849 65.044-27.888 80.619l-1.953 1.32-.1-40.314c-.055-22.173.033-40.433.195-40.577.163-.145 4.25-.571 9.084-.948 7.491-.585 18.626-1.556 19.643-1.714.169-.026.627.7 1.019 1.614m-39.411 7.616c.001 3.169.117 23.268.259 44.666l.257 38.905-11.82.282c-6.5.156-11.872.227-11.935.158-.064-.068-.246-19.844-.403-43.945l-.287-43.821 1.32-.198c.725-.109 3.868-.396 6.983-.639 3.115-.242 7.071-.581 8.789-.753 1.719-.172 3.96-.337 4.981-.365l1.855-.052zm96.18-2.029c-1.597 1.119-.81 4.079 1.085 4.079 1.837 0 2.458-1.986 1.143-3.658-.945-1.202-1.077-1.227-2.228-.421m-76.649 4.837c0 1.045.131 1.159 1.464 1.27l1.465.121-.138 4.883c-.136 4.831-.127 4.892.875 5.826 1.982 1.846 2.584.522 2.584-5.692v-5.212h1.367c1.258 0 1.367-.094 1.367-1.172v-1.172h-8.984zm-3.355 3.126c-2.32.555-3.286 2.112-3.286 5.296 0 3.938 1.967 5.834 5.797 5.586 2.581-.166 2.795-1.991.258-2.197-4.276-.346-4.343-6.709-.072-6.709 1.316 0 2.171-1.085 1.592-2.021-.237-.384-2.596-.359-4.289.045m11.938 4.984c-2.035 6.167-2 5.708-.442 5.806 1.12.071 1.36-.077 1.698-1.046.499-1.431 4.223-1.779 4.223-.394 0 1.037.938 1.688 2.222 1.541 1.281-.147 1.324.248-.655-5.986l-1.488-4.687-1.954-.117-1.954-.117zm66.534 38.45c.283 49.909.353 51.083 3.627 60.874 11.091 33.165 44.779 38.736 54.4 8.996 5.711-17.653 4.731-50.474-2.123-71.094-9.758-29.354-35.082-32.948-47.873-6.793-1.757 3.593-3.378 5.444-4.119 4.703-.357-.357 1.185-5.293 2.6-8.322 4.462-9.552 12.055-15.647 20.862-16.747 2.246-.281 2.258-.289 1.158-.799-.611-.284-3.571-1.644-6.579-3.021-3.008-1.378-8.809-4.094-12.891-6.036-4.082-1.941-7.845-3.656-8.362-3.811l-.939-.281zm-62.364-39.123c.469 1.758.375 1.962-.905 1.962-1.054 0-1.056-.01-.459-2.006.572-1.909.845-1.9 1.364.044m97.626 5.31c-1.375 1.374-.282 4.074 1.649 4.074 1.666 0 1.997-2.368.56-4.004-.743-.847-1.411-.868-2.209-.07m-116.081 3.445c-.117.305-.157 1.142-.088 1.861l.125 1.307 11.613.103 11.612.103.236-.942c.131-.519.178-1.356.107-1.861l-.13-.919-11.631-.104c-9.755-.086-11.666-.014-11.844.452M280.49 98.76c3.637 2.31 8.524 9.484 7.072 10.381-.215.133-1.009-.77-1.765-2.008-4.436-7.265-10.049-9.274-11.943-4.276-.644 1.7-.508 12.482.197 15.698 1.339 6.102 1.469 7.608.728 8.426-.949 1.049-1.052.988-1.88-1.104-.404-1.019-1.885-4.186-3.291-7.037l-2.558-5.183 1.071-3.801c2.982-10.578 7.212-14.373 12.369-11.096m-13.845.766c-2.021 3.907-3.972 11.073-5.5 20.199l-.85 5.076-1.534.26c-6.179 1.049-6.013 1.407-3.656-7.865 2.441-9.605 6.184-16.326 10.198-18.312 1.96-.97 2.132-.887 1.342.642m-136.274 13.265-3.808.128v12.979l3.575-.254c1.967-.139 6.253-.253 9.525-.253 7.099 0 6.506.704 6.16-7.309l-.241-5.582-5.701.082c-3.136.045-7.415.139-9.51.209m161.251 4.306c7.305 23.948 7.524 55.875.484 70.403-7.569 15.617-19.183 4.286-19.018-18.555.02-2.793.157-5.511.305-6.04l.268-.962.809.808c.729.729.83 1.431 1.039 7.212.927 25.739 13.687 30.836 17.663 7.056.791-4.729 1.059-4.214-4.109-7.878-4.669-3.31-5.009-3.686-4.171-4.612.344-.38.896-1.339 1.227-2.131.676-1.618.155-1.664 5.251.463 1.592.665 2.998 1.104 3.125.976.811-.812-.193-27.503-1.066-28.353-.146-.141-1.408 1.572-2.804 3.808-2.875 4.603-3 4.695-3.28 2.407-.112-.913-.378-2.973-.591-4.578-.386-2.905-.38-2.937 1.22-6.836 2.32-5.656 2.483-11.507.466-16.762-.303-.791 1.089-1.036 1.695-.299.268.326.937 2.069 1.487 3.873M133.843 130.26c-7.101 2.531-6.458 12.768.923 14.691 4.797 1.25 9.99-3.444 9.21-8.324-.805-5.034-5.536-8.006-10.133-6.367m147.959 1.057c5.943 6.942 5.568 28.257-.541 30.788-3.944 1.634-7.823-7.626-7.823-18.674 0-10.683 4.282-16.884 8.364-12.114m-22.634-.438c-.121.196-.225 5.281-.23 11.3-.01 10.923-.011 10.946-.86 11.13-1.668.364-5.497.988-6.057.988-.61 0-.425-17.97.225-21.875l.293-1.758 3.125-.195c3.341-.209 3.849-.15 3.504.41m18.371 3.729c-3.191 3.442-2.637 17.899.844 22.036 3.491 4.149 6.831-3.24 5.697-12.602-1.001-8.255-3.84-12.35-6.541-9.434m-139.435 1.116c1.169 1.17 1.198 1.757.149 3.091-1.246 1.584-3.264 1.388-4.21-.41-1.371-2.605 1.946-4.795 4.061-2.681m130.813 2.069c-.015.483-.059 2.432-.097 4.331l-.07 3.451-2.306.995-2.306.995-.19-1.224c-.105-.673-.095-3.121.021-5.44l.212-4.216 2.382.114c2.186.106 2.38.188 2.354.994m11.682 4.49c1.88 2.519.523 9.193-1.601 7.869-1.978-1.233-2.213-7.579-.326-8.837.619-.413 1.062-.19 1.927.968m-21.053 17.19c.114.698.466 2.851.784 4.785 1.757 10.711 5.675 21.529 10.54 29.101.898 1.397 1.772 2.771 1.944 3.054.807 1.332-4.049-1.84-6.361-4.155-6.345-6.353-11.427-17.067-13.534-28.531-.814-4.428-.804-4.454 1.995-4.993 4.008-.773 4.396-.711 4.632.739m-16.576 32.422c-.001 8.11.049 14.746.11 14.746s5.379.794 11.816 1.764c16.231 2.447 26.64 3.98 28.6 4.214l1.66.197v-2.938c0-2.861-.023-2.931-.879-2.684-14.828 4.278-29.697-5.2-38.831-24.751l-2.474-5.295zm1.59 20.462c-1.074 1.366-1.023 2.7.149 3.872 1.869 1.869 4.51.716 4.51-1.971 0-2.745-3.025-3.979-4.659-1.901m37.063 5.047c-1.276 1.537-.279 4.08 1.6 4.08 2.084 0 2.986-2.006 1.716-3.819-.718-1.024-2.562-1.169-3.316-.261m-48.236 13.553c.195.6 1.698 107.653 1.518 108.118-.044.115-1.896.073-4.114-.093-2.218-.165-10.098-.743-17.51-1.283-13.497-.984-19.756-1.452-62.695-4.684-12.676-.954-26.413-1.947-30.527-2.207l-7.48-.472-.23-7.062c-.127-3.885-.42-18.313-.651-32.063s-.564-32.91-.739-42.578-.241-17.71-.147-17.871c.322-.55 122.395-.356 122.575.195m20.91.684c13.344.602 33.78 1.648 33.881 1.733.05.043.205 19.226.343 42.629l.251 42.552-3.273 1.823c-4.576 2.55-14.189 7.301-24.757 12.236-4.941 2.308-10.717 5.066-12.836 6.129-2.118 1.063-4.061 1.852-4.316 1.754-.502-.192-.534-1.375-2.544-93.622-.387-17.786-.656-16.033 2.424-15.799 1.336.102 6.208.356 10.827.565m-134.233 4.348c-2.719 1.365-1.648 5.547 1.42 5.547 2.541 0 3.999-3.33 2.233-5.096-.697-.696-2.678-.941-3.653-.451m96.739.06c-3.286 1.663-.76 6.802 2.65 5.39 2.175-.901 2.579-3.06.89-4.75-1.246-1.246-2.053-1.392-3.54-.64m28.187 1.183c-1.819 1.936-.593 4.956 2.012 4.956 2.647 0 3.995-3.225 2.094-5.011-1.201-1.128-3.017-1.104-4.106.055m36.093.491c-1.354 1.354-.551 4.06 1.388 4.675 2.091.664 3.99-2.85 2.457-4.544-.826-.912-2.99-.986-3.845-.131"/>
</svg>
